<svg xmlns="http://www.w3.org/2000/svg" width="101" height="108">
    <!-- <path fill="#ECE9ED" d="M0 0h101v108H0V0Z" />  bg color-->
    <!-- <path fill="#2D2D30"
        d="M0 0h101v108H0V0Zm1 1v106h99V90l-2.875 2.688C88.425 100.035 79.007 102.22 68
    104l-3.938.688C46.227 106.544 24.583 105.498 10 94c-2.77-2.702-3.836-4.145-4.563-7.938C6.216
    81.83 8.055 80.094 11 77l-1 1.563C8.62 81.925 8.62 84.392 9 88c3.374 6.587 11.221 9.61 17.848
    12.047 18.272 4.897 43 4.587 60.18-3.89 4.843-2.84 8.243-5.247 10.284-10.594C96.877 80.596
    94.504 78.352 91 75l-1-1c1.107.767 2.21 1.539 3.313 2.313l1.863 1.3C97 79 97 79 100 82V1H1Z" /> -->


    <g transform="translate(0.000000,108.000000) scale(0.100000,-0.100000)"
        fill="#000000" stroke="none">
        <path
            d="M0 540 l0 -540 505 0 505 0 0 540 0 540 -505 0 -505 0 0 -540z m1000
120 l0 -410 -35 38 -36 37 21 -35 c27 -48 25 -73 -11 -114 -66 -76 -212 -119
-409 -119 -149 -1 -259 20 -345 67 -101 54 -125 117 -69 178 27 30 27 31 4 16
-41 -25 -72 -79 -66 -113 13 -68 118 -129 277 -161 127 -26 367 -16 475 19 89
30 160 72 180 108 12 21 13 13 14 -68 l0 -93 -495 0 -495 0 0 530 0 530 495 0
495 0 0 -410z" />
    </g>
    <path fill="#494A50"
        d="m73 33 2 1-2.703 2.047c-1.183.9-2.365 1.802-3.547 2.703l-1.777 1.344C63.756 42.55 60.788 45.047 58 48c1.083 3.249 1.586 3.661 4.188 5.625 5.907 4.872 10.251 10.97 11.05 18.672C73.418 78.23 72.792 83.225 69 88c-2.14 1.219-2.14 1.219-4 2l-.297-2.93C63.31 74.93 60.253 66.01 53 56c-4.347 1.481-6.045 4.656-8.125 8.5l-1.068 1.967C39.907 74.273 39.394 82.402 39 91c-5.22-4.159-8.185-7.139-9.352-14.098-.518-7.74 2.648-13.705 7.559-19.511C47.377 46.82 59.962 39.519 73 33Z" />
    <path fill="#EE8A53"
        d="M56 49c7.062 4.451 13.918 10.962 16.703 19.04 1.023 6.754.72 12.252-2.437 18.366C68.738 88.33 67.243 89.058 65 90l-.297-2.93C63.265 74.545 60.231 63.231 51 54l5-5Z" />
    <path fill="#EBE7EB"
        d="M99 90h1v17H47v-1l1.69-.136C72.97 104.382 72.97 104.382 95 95a114.779 114.779 0 0 0 4-5Z" />
    <path fill="#474A4F"
        d="M51.438 24.688C55 25 55 25 56.938 26.125 58.53 28.935 58.453 30.828 58 34c-1.625 2.438-1.625 2.438-4 4-3.514 0-5.275-.369-7.938-2.688C44.614 32.162 45.07 30.291 46 27c2-2 2-2 5.438-2.313Z" />
    <path fill="#EE8D57"
        d="M71.625 44.125C74 45 74 45 76 48c-.324 3.322-.608 4.608-3 7-3 .313-3 .313-6 0-2.148-3.221-2.561-4.26-2-8 2.226-2.473 3.283-3.034 6.625-2.875Z" />
    <path fill="#45454C"
        d="M33 44.75C36 45 36 45 38 47c.25 3 .25 3 0 6-2 2-2 2-5 2.25C30 55 30 55 28 53c-.25-3-.25-3 0-6 2-2 2-2 5-2.25Z" />
    <path fill="#535359"
        d="M13 50c5.05 1.397 8.696 3.6 12.875 6.625l1.797 1.273A706.68 706.68 0 0 1 32 61l-2 7h-2c-1.191-1.688-1.191-1.688-2.563-4-2.966-4.652-6.456-7.956-10.68-11.469L13 51v-1Z" />
    <path fill="#EB9362"
        d="M27 32c4.752 1.751 9.156 4.077 13.625 6.438l2.313 1.197 2.226 1.174 2.014 1.056c1.9 1.184 3.306 2.496 4.822 4.135l-5 3-1.836-1.723c-5.192-4.784-10.446-9.056-16.328-12.965L27 33v-1Z" />
    <path fill="#F08E58"
        d="m87 51 2 1-1.793 1.469C82.042 57.85 78.174 62.002 75 68l-4-5c4.555-4.996 9.94-8.97 16-12Z" />
    <path fill="#5E6066"
        d="m11 76 2 1-1.438 1.688C9.877 81.183 9.41 83.044 9 86l-3-3c1.293-2.884 2.66-4.872 5-7Z" />
</svg>